<svg xmlns="http://www.w3.org/2000/svg" version="1.1" xmlns:xlink="http://www.w3.org/1999/xlink" xmlns:svgjs="http://svgjs.dev/svgjs" width="1000" height="750" viewBox="0 0 1000 750"><rect width="1000" height="750" fill="#ffffff"></rect><g transform="matrix(0.834,0,0,0.834,82.49454545454546,318.8058527083461)"><svg viewBox="0 0 396 54" data-background-color="#ffffff" preserveAspectRatio="xMidYMid meet" height="136" width="1000" xmlns="http://www.w3.org/2000/svg" xmlns:xlink="http://www.w3.org/1999/xlink"><g id="tight-bounds" transform="matrix(1,0,0,1,0.2400000000000091,-0.24654434908563871)"><svg viewBox="0 0 395.52 54.49308869817128" height="54.49308869817128" width="395.52"><g><svg viewBox="0 0 490.6200864160278 67.59558021382752" height="54.49308869817128" width="395.52"><g><rect width="4.410882186918775" height="58.693702066999286" x="79.14239222146828" y="4.450939073414116" fill="#ffffff" opacity="1" stroke-width="0" stroke="transparent" fill-opacity="1" class="rect-o-0" data-fill-palette-color="primary" rx="1%" id="o-0" data-palette-color="#ffffff"></rect></g><g transform="matrix(1,0,0,1,95.10008641602782,9.342080912330722)"><svg viewBox="0 0 395.52 48.91141838916607" height="48.91141838916607" width="395.52"><g id="textblocktransform"><svg viewBox="0 0 395.52 48.91141838916607" height="48.91141838916607" width="395.52" id="textblock"><g><svg viewBox="0 0 395.52 48.91141838916607" height="48.91141838916607" width="395.52"><g transform="matrix(1,0,0,1,0,0)"><svg width="395.52" viewBox="2.4000000953674316 -34.29999923706055 280.58001708984375 34.70000076293945" height="48.91141838916607" data-palette-color="#ffffff"><path d="M27.9-32.35L27.9-32.35 27.9-28.2Q25.7-29.35 23.95-29.85 22.2-30.35 19.35-30.35L19.35-30.35Q13.9-30.35 10.28-26.65 6.65-22.95 6.65-17L6.65-17Q6.65-10.8 10.25-7.1 13.85-3.4 19.8-3.4L19.8-3.4Q24.6-3.4 28-5.95L28-5.95 28-1.7Q24.9 0.4 19.5 0.4L19.5 0.4Q11.9 0.4 7.15-4.28 2.4-8.95 2.4-17L2.4-17Q2.4-24.6 7.23-29.38 12.05-34.15 19.35-34.15L19.35-34.15Q24.6-34.15 27.9-32.35ZM38.3 0L34.25 0 34.25-33.7 38.3-33.7 38.3 0ZM50.35 0L46.3 0 46.3-33.7 51.4-33.7 59.85-19.5 68.4-4.9Q68.2-9.75 68.2-19.45L68.2-19.45 68.2-33.7 72.25-33.7 72.25 0 67.15 0 58.7-14.1Q56.15-18.35 54-22.03 51.85-25.7 50.95-27.3L50.95-27.3 50.1-28.85Q50.35-23.65 50.35-14.2L50.35-14.2 50.35 0ZM83.99-15.05L83.99-3.55 98.74-3.55 98.74 0 79.94 0 79.94-33.7 98.49-33.7 98.49-30.15 83.99-30.15 83.99-18.6 96.79-18.6 96.79-15.05 83.99-15.05ZM108.69 0L104.64 0 107.09-33.7 112.24-33.7 116.69-21.4 122.09-5.7Q124.99-13.9 127.79-21.4L127.79-21.4 132.44-33.7 137.59-33.7 140.54 0 136.49 0 135.34-13.3 134.14-28.25Q131.49-20.85 128.69-13.3L128.69-13.3 123.99-0.75 120.14-0.75 115.69-13.3 110.59-27.95Q110.59-26 109.64-13.3L109.64-13.3 108.69 0ZM154.89-14.2L154.24-12.3 166.19-12.3 165.54-14.25 160.29-30.45Q159.69-28.3 154.89-14.2L154.89-14.2ZM174.64 0L170.29 0 167.34-8.85 153.09-8.85 150.09 0 145.74 0 157.49-33.7 163.09-33.7 174.64 0ZM195.09-18.9L206.54-18.9 206.54-2.8 206.49-2.8 206.54-2.65Q202.49 0.4 196.09 0.4L196.09 0.4Q188.29 0.4 183.54-4.23 178.79-8.85 178.79-16.9L178.79-16.9Q178.79-24.55 183.51-29.43 188.24-34.3 195.44-34.3L195.44-34.3Q201.39-34.3 205.29-32L205.29-32 205.29-27.65Q201.19-30.35 195.79-30.35L195.79-30.35Q190.14-30.35 186.59-26.68 183.04-23 183.04-16.9L183.04-16.9Q183.04-10.65 186.54-7.08 190.04-3.5 196.19-3.5L196.19-3.5Q199.59-3.5 202.49-4.85L202.49-4.85 202.49-15.35 195.09-15.35 195.09-18.9ZM218.08 0L214.03 0 214.03-33.7 218.08-33.7 218.08 0ZM250.13-32.35L250.13-32.35 250.13-28.2Q247.93-29.35 246.18-29.85 244.43-30.35 241.58-30.35L241.58-30.35Q236.13-30.35 232.51-26.65 228.88-22.95 228.88-17L228.88-17Q228.88-10.8 232.48-7.1 236.08-3.4 242.03-3.4L242.03-3.4Q246.83-3.4 250.23-5.95L250.23-5.95 250.23-1.7Q247.13 0.4 241.73 0.4L241.73 0.4Q234.13 0.4 229.38-4.28 224.63-8.95 224.63-17L224.63-17Q224.63-24.6 229.46-29.38 234.28-34.15 241.58-34.15L241.58-34.15Q246.83-34.15 250.13-32.35ZM263.23-14.2L262.58-12.3 274.53-12.3 273.88-14.25 268.63-30.45Q268.03-28.3 263.23-14.2L263.23-14.2ZM282.98 0L278.63 0 275.68-8.85 261.43-8.85 258.43 0 254.08 0 265.83-33.7 271.43-33.7 282.98 0Z" opacity="1" transform="matrix(1,0,0,1,0,0)" fill="#ffffff" class="undefined-text-0" data-fill-palette-color="primary" id="text-0"></path></svg></g></svg></g></svg></g></svg></g><g><svg viewBox="0 0 67.59558021382752 67.59558021382752" height="67.59558021382752" width="67.59558021382752"><g><svg xmlns="http://www.w3.org/2000/svg" xmlns:xlink="http://www.w3.org/1999/xlink" xmlns:a="http://ns.adobe.com/AdobeSVGViewerExtensions/3.0/" version="1.1" x="0" y="0" viewBox="0 0 100 100" overflow="visible" enable-background="new 0 0 100 100" xml:space="preserve" height="67.59558021382752" width="67.59558021382752" class="icon-icon-0" data-fill-palette-color="accent" id="icon-0"><path d="M100 0H66v20.253C66 21.651 64.689 23 63.291 23H7.595C6.197 23 5 21.651 5 20.253V0H0v100h5V79.747C5 78.349 6.197 77 7.595 77h55.696C64.689 77 66 78.349 66 79.747V100h34V0zM66 69.468C66 70.866 64.867 72 63.469 72H7.531C6.133 72 5 70.866 5 69.468V30.532C5 29.134 6.133 28 7.531 28h55.938C64.867 28 66 29.134 66 30.532V69.468zM92 81.141C92 81.615 91.615 82 91.142 82H70.858C70.385 82 70 81.615 70 81.141V67.859C70 67.385 70.385 67 70.858 67h20.283C91.615 67 92 67.385 92 67.859V81.141zM92 33.142C92 33.616 91.615 34 91.142 34H70.858C70.385 34 70 33.616 70 33.142V19.858C70 19.384 70.385 19 70.858 19h20.283C91.615 19 92 19.384 92 19.858V33.142z" fill="#ff908b" data-fill-palette-color="accent"></path></svg></g></svg></g></svg></g><defs></defs></svg><rect width="395.52" height="54.49308869817128" fill="none" stroke="none" visibility="hidden"></rect></g></svg></g></svg>